<?xml version="1.0" encoding="UTF-8" standalone="no"?>
<!DOCTYPE svg PUBLIC "-//W3C//DTD SVG 20010904//EN" "http://www.w3.org/TR/2001/REC-SVG-20010904/DTD/svg10.dtd">
<svg xmlns="http://www.w3.org/2000/svg" width="9.65556in" height="1.5in" viewBox="0 0 869 135">
  <path id="Path" fill="none" stroke="black" stroke-width="1"
    d="M 6.80,125.84            C 6.80,125.84 32.19,125.84 32.19,125.84              32.19,125.84 32.19,85.62 32.19,85.62              32.19,85.62 6.80,60.23 6.80,60.23              6.80,60.23 6.80,125.84 6.80,125.84 Z            M 78.28,6.22            C 78.28,6.22 78.28,70.77 78.28,70.77              78.28,70.77 13.09,5.58 13.09,5.58              13.09,5.58 6.80,5.58 6.80,5.58              6.80,5.58 6.80,35.20 6.80,35.20              6.80,35.20 79.67,108.08 79.67,108.08              79.67,108.08 97.61,126.00 97.61,126.00              97.61,126.00 103.69,126.00 103.69,126.00              103.69,126.00 103.69,6.22 103.69,6.22              103.69,6.22 78.28,6.22 78.28,6.22 Z            M 204.05,6.39            C 204.05,6.39 204.05,71.92 204.05,71.92              204.05,87.30 191.77,100.16 176.67,100.61              176.33,100.61 175.98,100.62 175.64,100.62              175.30,100.62 174.94,100.61 174.58,100.61              159.48,100.14 147.19,87.27 147.19,71.92              147.19,71.92 147.19,6.39 147.19,6.39              147.19,6.39 121.80,6.39 121.80,6.39              121.80,6.39 121.80,81.11 121.80,81.11              121.80,90.77 125.31,99.89 131.72,106.80              134.11,109.39 136.75,111.78 139.56,113.91              150.02,121.83 162.50,126.00 175.64,126.00              188.78,126.00 201.23,121.83 211.69,113.94              214.47,111.83 217.09,109.47 219.48,106.91              225.91,100.00 229.45,90.86 229.45,81.16              229.45,81.16 229.45,6.39 229.45,6.39              229.45,6.39 204.05,6.39 204.05,6.39 Z            M 247.80,126.00            C 247.80,126.00 273.19,126.00 273.19,126.00              273.19,126.00 273.19,85.56 273.19,85.56              273.19,85.56 247.80,60.20 247.80,60.20              247.80,60.20 247.80,126.00 247.80,126.00 Z            M 349.94,5.58            C 349.94,5.58 302.02,53.48 302.02,53.48              302.02,53.48 254.11,5.58 254.11,5.58              254.11,5.58 247.80,5.58 247.80,5.58              247.80,5.58 247.80,35.19 247.80,35.19              247.80,35.19 284.92,72.31 284.92,72.31              284.92,72.31 302.02,89.39 302.02,89.39              302.02,89.39 310.02,81.39 310.02,81.39              310.02,81.39 311.42,80.00 311.42,80.00              311.42,80.00 330.08,61.34 330.08,61.34              330.08,61.34 330.08,126.00 330.08,126.00              330.08,126.00 355.48,126.00 355.48,126.00              355.48,126.00 355.48,5.58 355.48,5.58              355.48,5.58 349.94,5.58 349.94,5.58 Z            M 399.19,79.03            C 399.19,79.03 447.61,79.03 447.61,79.03              452.53,80.16 456.06,84.56 456.06,89.66              456.06,94.62 452.64,99.00 447.88,100.23              447.88,100.23 399.19,100.23 399.19,100.23              399.19,100.23 399.19,79.03 399.19,79.03 Z            M 476.89,71.94            C 474.89,68.36 472.33,65.17 469.25,62.45              468.83,62.08 468.39,61.70 467.92,61.34              468.11,61.05 468.28,60.75 468.45,60.45              468.45,60.45 468.47,60.44 468.47,60.44              468.47,60.44 468.47,60.42 468.47,60.42              468.47,60.42 468.50,60.38 468.50,60.38              468.55,60.30 468.61,60.19 468.66,60.09              471.67,54.70 473.27,48.58 473.27,42.38              473.27,36.22 471.70,30.14 468.73,24.80              468.64,24.61 468.53,24.44 468.44,24.27              461.95,13.02 449.89,6.03 436.92,6.03              436.92,6.03 373.80,6.03 373.80,6.03              373.80,6.03 373.80,31.88 373.80,31.88              373.80,31.88 399.19,31.88 399.19,31.88              399.19,31.88 399.19,31.84 399.19,31.84              399.19,31.84 439.75,31.84 439.75,31.84              444.47,33.11 447.83,37.45 447.83,42.38              447.83,47.61 444.17,52.05 439.08,53.08              439.08,53.08 373.80,53.08 373.80,53.08              373.80,53.08 373.80,126.02 373.80,126.02              373.80,126.02 436.92,126.02 436.92,126.02              438.28,126.02 439.66,125.92 441.03,125.78              442.41,125.92 443.80,126.02 445.16,126.02              458.34,126.02 470.52,118.84 476.94,107.31              479.92,101.95 481.50,95.84 481.50,89.66              481.50,83.45 479.91,77.33 476.89,71.94 Z            M 499.80,6.44            C 499.80,6.44 499.80,31.83 499.80,31.83              499.80,31.83 606.64,31.83 606.64,31.83              606.64,31.83 606.64,6.44 606.64,6.44              606.64,6.44 499.80,6.44 499.80,6.44 Z            M 525.20,74.94            C 525.20,74.94 595.98,74.94 595.98,74.94              595.98,74.94 595.98,49.53 595.98,49.53              595.98,49.53 525.20,49.53 525.20,49.53              525.20,49.53 499.80,49.38 499.80,49.38              499.80,49.38 499.80,126.00 499.80,126.00              499.80,126.00 606.64,126.00 606.64,126.00              606.64,126.00 606.64,100.61 606.64,100.61              606.64,100.61 525.20,100.61 525.20,100.61              525.20,100.61 525.20,74.94 525.20,74.94 Z            M 736.03,118.77            C 736.03,118.77 701.80,62.64 701.80,62.64              702.00,62.48 702.20,62.33 702.41,62.17              702.41,62.17 702.53,62.08 702.53,62.08              702.67,61.97 702.81,61.86 702.95,61.75              703.20,61.55 703.47,61.34 703.72,61.14              704.06,60.86 704.39,60.58 704.72,60.31              704.77,60.27 704.81,60.22 704.84,60.19              705.11,59.97 705.38,59.73 705.62,59.50              706.38,58.84 707.12,58.14 707.92,57.36              716.16,49.23 721.81,39.02 724.31,27.78              725.25,23.55 725.73,19.17 725.73,14.77              725.73,13.38 725.69,11.95 725.58,10.55              725.58,10.55 725.28,6.11 725.28,6.11              725.28,6.11 624.80,6.11 624.80,6.11              624.80,6.11 624.80,31.50 624.80,31.50              624.80,31.50 679.20,31.50 679.20,31.50              679.20,31.50 679.20,31.52 679.20,31.52              679.20,31.52 695.98,31.52 695.98,31.52              694.41,34.36 692.41,36.98 690.08,39.28              687.00,42.31 683.47,44.70 679.56,46.41              679.45,46.45 679.33,46.50 679.20,46.55              675.00,48.31 670.53,49.20 665.89,49.20              665.89,49.20 624.80,49.20 624.80,49.20              624.80,49.20 624.80,126.02 624.80,126.02              624.80,126.02 650.19,126.02 650.19,126.02              650.19,126.02 650.19,74.61 650.19,74.61              650.19,74.61 665.89,74.61 665.89,74.61              666.28,74.61 666.67,74.61 667.06,74.59              667.06,74.59 667.44,74.59 667.44,74.59              667.44,74.59 667.73,74.58 667.73,74.58              667.73,74.58 667.77,74.58 667.77,74.58              668.08,74.56 668.39,74.56 668.69,74.55              668.84,74.55 668.95,74.53 669.05,74.53              669.44,74.50 669.83,74.48 670.22,74.45              670.22,74.45 670.48,74.45 670.48,74.45              670.48,74.45 670.67,74.42 670.67,74.42              671.06,74.39 671.48,74.34 671.95,74.30              672.34,74.27 672.75,74.22 673.16,74.17              673.33,74.14 673.50,74.12 673.67,74.09              674.05,74.06 674.44,74.00 674.81,73.94              674.81,73.94 674.86,73.94 674.86,73.94              675.00,73.92 675.16,73.89 675.30,73.88              675.62,73.81 675.94,73.77 676.20,73.72              676.97,73.59 677.75,73.44 678.53,73.27              678.53,73.27 709.30,123.72 709.30,123.72              709.30,123.72 710.69,126.00 710.69,126.00              710.69,126.00 740.44,126.00 740.44,126.00              740.44,126.00 736.03,118.77 736.03,118.77 Z            M 862.89,57.47            C 862.89,57.47 862.89,42.64 862.89,42.64              862.89,36.28 861.25,30.02 858.11,24.53              857.84,24.03 857.55,23.55 857.22,23.03              854.23,18.31 850.12,14.27 845.38,11.36              845.05,11.16 844.70,10.95 844.33,10.73              838.84,7.61 832.58,5.95 826.22,5.95              826.16,5.95 826.09,5.95 826.02,5.97              826.02,5.97 795.67,5.97 795.67,5.97              795.59,5.95 795.53,5.95 795.47,5.95              782.83,5.95 771.25,12.34 764.47,23.02              760.77,28.88 758.80,35.67 758.80,42.64              758.80,49.61 760.77,56.39 764.48,62.25              770.56,71.84 780.92,78.17 792.20,79.17              793.27,79.27 794.38,79.31 795.47,79.31              796.48,79.31 797.52,79.27 798.52,79.19              798.52,79.19 823.17,79.19 823.17,79.19              824.19,79.27 825.20,79.31 826.22,79.31              826.83,79.31 827.42,79.30 828.00,79.27              832.84,80.11 836.44,84.36 836.44,89.33              836.44,94.47 832.61,98.83 827.53,99.47              827.53,99.47 824.92,99.47 824.92,99.47              824.92,99.47 824.64,99.42 824.64,99.42              824.64,99.42 790.31,99.42 790.31,99.42              790.31,99.42 790.33,99.47 790.33,99.47              790.33,99.47 761.11,99.47 761.11,99.47              761.11,99.47 761.11,125.92 761.11,125.92              761.11,125.92 823.73,125.92 823.73,125.92              824.53,125.98 825.34,126.00 826.22,126.00              827.09,126.00 827.91,125.98 828.70,125.92              828.70,125.92 828.72,125.92 828.72,125.92              828.72,125.92 828.89,125.91 828.89,125.91              829.09,125.89 829.31,125.88 829.52,125.86              834.78,125.39 839.78,123.83 844.36,121.22              849.55,118.27 854.00,114.03 857.22,108.95              857.56,108.41 857.88,107.89 858.17,107.36              858.17,107.34 858.19,107.33 858.19,107.31              861.27,101.86 862.89,95.64 862.89,89.34              862.89,89.34 862.89,57.47 862.89,57.47 Z            M 795.39,32.42            C 795.39,32.42 826.30,32.42 826.30,32.42              831.89,32.47 836.44,37.05 836.44,42.64              836.44,42.64 836.44,52.73 836.44,52.73              836.44,52.73 793.89,52.73 793.89,52.73              788.94,51.97 785.25,47.67 785.25,42.64              785.25,37.05 789.80,32.47 795.39,32.42 Z"
    style="fill: #000;" />
</svg>